<svg xmlns="http://www.w3.org/2000/svg" viewBox="0 0 388.39 127.04"><defs><style>.cls-1{fill:#fff;}</style></defs><title>Asset 6</title><g id="Layer_2" data-name="Layer 2"><g id="Layer_1-2" data-name="Layer 1"><path class="cls-1" d="M32.85,21.52H65.7V54.37A32.85,32.85,0,1,1,32.85,21.52Zm26.88,6H32.85A26.88,26.88,0,1,0,59.73,54.37Z"/><path class="cls-1" d="M59.73,54.37h6v49.77A22.9,22.9,0,1,1,32.85,83.53V81.25A26.91,26.91,0,0,0,59.73,54.37Zm-16.92,66.7a17,17,0,0,0,16.92-16.93V73.24A33,33,0,0,1,42.81,85.68v-.05c-10.42,3.1-16.93,9.18-16.93,18.51A17,17,0,0,0,42.81,121.07Z"/><path class="cls-1" d="M32.85,21.52A32.85,32.85,0,1,1,0,54.37,32.88,32.88,0,0,1,32.85,21.52Zm0,59.73A26.88,26.88,0,1,0,6,54.37,26.91,26.91,0,0,0,32.85,81.25Z"/><path class="cls-1" d="M139.65,21.64h14.49c8,0,12,3.86,12,9.28,0,4.26-2.77,6.93-6.54,7.78v.35a8.39,8.39,0,0,1,8,8.79c0,5.76-4.33,10-12.47,10H139.65ZM153,36.79c3.12,0,5.46-1.73,5.46-4.59,0-2.62-1.93-4.37-5.32-4.37H147.3v9Zm.56,14.8c4.28,0,6.13-1.79,6.13-4.51,0-3-2.28-5.11-5.95-5.11H147.3v9.62Z"/><path class="cls-1" d="M172.52,21.64h24.4V28H180.18v8.63h15.48v6.31H180.18v8.64H197v6.31H172.52Z"/><path class="cls-1" d="M201.62,21.64h29.73V28H220.27V57.84H212.7V28H201.62Z"/><path class="cls-1" d="M234.87,21.64H264.6V28H253.52V57.84H246V28H234.87Z"/><path class="cls-1" d="M269.49,21.64h24.4V28H277.15v8.63h15.48v6.31H277.15v8.64H294v6.31H269.49Z"/><path class="cls-1" d="M300,21.64h14.28c8.22,0,13,4.64,13,11.83,0,5-2.28,8.54-6.39,10.3l7.68,14.07h-8.44L313.21,45h-5.59V57.84H300Zm12.85,17.22c4.38,0,6.52-1.8,6.52-5.39s-2.14-5.57-6.56-5.57h-5.16v11Z"/><path class="cls-1" d="M351.8,57.84h-7.65V21.64h7.65Z"/><path class="cls-1" d="M388.39,57.84h-6.61L366,35.06h-.27V57.84h-7.65V21.64h6.71l15.63,22.77h.32V21.64h7.62Z"/><path class="cls-1" d="M139.65,69.07h15.06c8.3,0,12.49,3.86,12.49,9.28,0,4.26-2.88,6.93-6.8,7.78v.35a8.53,8.53,0,0,1,8.27,8.79c0,5.76-4.5,10-12.95,10H139.65ZM153.5,84.22c3.25,0,5.67-1.73,5.67-4.59,0-2.62-2-4.37-5.53-4.37h-6v9Zm.59,14.8c4.44,0,6.37-1.79,6.37-4.51,0-3-2.37-5.11-6.19-5.11H147.6V99Z"/><path class="cls-1" d="M173.81,69.07h25.35v6.31H181.77V84h16.09v6.31H181.77V99h17.47v6.31H173.81Z"/><path class="cls-1" d="M204.05,69.07h30.89v6.31H223.43v29.89h-7.86V75.38H204.05Z"/><path class="cls-1" d="M237.74,69.07h8.68l6.23,25.16H253l6.87-25.16h7.44l6.85,25.21h.33l6.23-25.21h8.69l-10.76,36.2h-7.76l-7.16-23.66h-.29l-7.15,23.66H248.5Z"/><path class="cls-1" d="M293.58,69.07h25.35v6.31H301.54V84h16.09v6.31H301.54V99H319v6.31H293.58Z"/><path class="cls-1" d="M325.25,69.07H350.6v6.31H333.21V84H349.3v6.31H333.21V99h17.46v6.31H325.25Z"/><path class="cls-1" d="M388.39,105.27h-6.87L365.15,82.49h-.28v22.78h-7.95V69.07h7l16.24,22.77h.33V69.07h7.92Z"/><path class="cls-1" d="M92.53,105.52H59.68V72.67a32.85,32.85,0,1,1,32.85,32.85Zm-26.88-6H92.53A26.88,26.88,0,1,0,65.65,72.67Z"/><path class="cls-1" d="M65.65,72.67h-6V22.9A22.9,22.9,0,1,1,92.53,43.51v2.28A26.91,26.91,0,0,0,65.65,72.67ZM82.58,6A16.94,16.94,0,0,0,65.65,22.9V53.8A33,33,0,0,1,82.58,41.36v0C93,38.31,99.5,32.23,99.5,22.9A16.94,16.94,0,0,0,82.58,6Z"/><path class="cls-1" d="M92.53,105.52a32.85,32.85,0,1,1,32.85-32.85A32.89,32.89,0,0,1,92.53,105.52Zm0-59.73a26.88,26.88,0,1,0,26.88,26.88A26.91,26.91,0,0,0,92.53,45.79Z"/></g></g></svg>