s5<svg xmlns="http://www.w3.org/2000/svg" viewBox="0 0 388.39 127.04"><defs><style>.cls-1{fill:#fff;}</style></defs><title>better-in-between-logo-black</title><g id="Layer_2" data-name="Layer 2"><g id="Layer_1-2" data-name="Layer 1"><path class="cls-1" d="M32.85,21.52H65.7V54.37A32.85,32.85,0,1,1,32.85,21.52Zm26.88,6H32.85A26.88,26.88,0,1,0,59.73,54.37Z"/><path class="cls-1" d="M59.73,54.37h6v49.77A22.9,22.9,0,1,1,32.85,83.53V81.25A26.91,26.91,0,0,0,59.73,54.37Zm-16.92,66.7a17,17,0,0,0,16.92-16.93V73.24A33,33,0,0,1,42.81,85.68v-.05c-10.42,3.1-16.93,9.18-16.93,18.51A17,17,0,0,0,42.81,121.07Z"/><path class="cls-1" d="M32.85,21.52A32.85,32.85,0,1,1,0,54.37,32.88,32.88,0,0,1,32.85,21.52Zm0,59.73A26.88,26.88,0,1,0,6,54.37,26.91,26.91,0,0,0,32.85,81.25Z"/><path class="cls-1" d="M139.65,22.64a1,1,0,0,1,1-1h13.49c8,0,12,3.86,12,9.28,0,4.26-2.77,6.93-6.54,7.78v.35a8.39,8.39,0,0,1,8,8.79c0,5.76-4.33,10-12.47,10H140.65a1,1,0,0,1-1-1ZM153,36.79c3.12,0,5.46-1.73,5.46-4.59,0-2.62-1.93-4.37-5.32-4.37H148.3a1,1,0,0,0-1,1v7a1,1,0,0,0,1,1Zm.56,14.8c4.28,0,6.13-1.79,6.13-4.51,0-3-2.28-5.11-5.95-5.11H148.3a1,1,0,0,0-1,1v7.62a1,1,0,0,0,1,1Z"/><path class="cls-1" d="M173.52,21.64h22.4a1,1,0,0,1,1,1V27a1,1,0,0,1-1,1H181.18a1,1,0,0,0-1,1v6.63a1,1,0,0,0,1,1h13.48a1,1,0,0,1,1,1v4.31a1,1,0,0,1-1,1H181.18a1,1,0,0,0-1,1v6.64a1,1,0,0,0,1,1H196a1,1,0,0,1,1,1v4.31a1,1,0,0,1-1,1H173.52a1,1,0,0,1-1-1V22.64A1,1,0,0,1,173.52,21.64Z"/><path class="cls-1" d="M202.62,21.64h27.73a1,1,0,0,1,1,1V27a1,1,0,0,1-1,1h-9.08a1,1,0,0,0-1,1V56.84a1,1,0,0,1-1,1H213.7a1,1,0,0,1-1-1V29a1,1,0,0,0-1-1h-9.08a1,1,0,0,1-1-1V22.64A1,1,0,0,1,202.62,21.64Z"/><path class="cls-1" d="M235.87,21.64H263.6a1,1,0,0,1,1,1V27a1,1,0,0,1-1,1h-9.08a1,1,0,0,0-1,1V56.84a1,1,0,0,1-1,1H247a1,1,0,0,1-1-1V29a1,1,0,0,0-1-1h-9.08a1,1,0,0,1-1-1V22.64A1,1,0,0,1,235.87,21.64Z"/><path class="cls-1" d="M270.49,21.64h22.4a1,1,0,0,1,1,1V27a1,1,0,0,1-1,1H278.15a1,1,0,0,0-1,1v6.63a1,1,0,0,0,1,1h13.48a1,1,0,0,1,1,1v4.31a1,1,0,0,1-1,1H278.15a1,1,0,0,0-1,1v6.64a1,1,0,0,0,1,1H293a1,1,0,0,1,1,1v4.31a1,1,0,0,1-1,1H270.49a1,1,0,0,1-1-1V22.64A1,1,0,0,1,270.49,21.64Z"/><path class="cls-1" d="M300,22.64a1,1,0,0,1,1-1h13.28c8.22,0,13,4.64,13,11.83,0,4.58-2,8-5.5,9.88a1,1,0,0,0-.39,1.34l6.38,11.68a1,1,0,0,1-.88,1.47h-6.17a1,1,0,0,1-.88-.52l-6.29-11.78a1,1,0,0,0-.88-.53h-4a1,1,0,0,0-1,1V56.84a1,1,0,0,1-1,1H301a1,1,0,0,1-1-1Zm12.85,16.22c4.38,0,6.52-1.8,6.52-5.39s-2.14-5.57-6.56-5.57h-4.16a1,1,0,0,0-1,1v9a1,1,0,0,0,1,1Z"/><path class="cls-1" d="M350.8,57.84h-5.65a1,1,0,0,1-1-1V22.64a1,1,0,0,1,1-1h5.65a1,1,0,0,1,1,1v34.2A1,1,0,0,1,350.8,57.84Z"/><path class="cls-1" d="M387.39,57.84H382.3a1,1,0,0,1-.82-.43L366,35.06h-.27V56.84a1,1,0,0,1-1,1h-5.65a1,1,0,0,1-1-1V22.64a1,1,0,0,1,1-1h5.19a1,1,0,0,1,.82.44l15.33,22.33h.32V22.64a1,1,0,0,1,1-1h5.62a1,1,0,0,1,1,1v34.2A1,1,0,0,1,387.39,57.84Z"/><path class="cls-1" d="M139.65,70.07a1,1,0,0,1,1-1h14.06c8.3,0,12.49,3.86,12.49,9.28,0,4.26-2.88,6.93-6.8,7.78v.35a8.53,8.53,0,0,1,8.27,8.79c0,5.76-4.5,10-12.95,10H140.65a1,1,0,0,1-1-1ZM153.5,84.22c3.25,0,5.67-1.73,5.67-4.59,0-2.62-2-4.37-5.53-4.37h-5a1,1,0,0,0-1,1v7a1,1,0,0,0,1,1Zm.59,14.8c4.44,0,6.37-1.79,6.37-4.51,0-3-2.37-5.11-6.19-5.11H148.6a1,1,0,0,0-1,1V98a1,1,0,0,0,1,1Z"/><path class="cls-1" d="M174.81,69.07h23.35a1,1,0,0,1,1,1v4.31a1,1,0,0,1-1,1H182.77a1,1,0,0,0-1,1V83a1,1,0,0,0,1,1h14.09a1,1,0,0,1,1,1v4.31a1,1,0,0,1-1,1H182.77a1,1,0,0,0-1,1V98a1,1,0,0,0,1,1h15.47a1,1,0,0,1,1,1v4.31a1,1,0,0,1-1,1H174.81a1,1,0,0,1-1-1V70.07A1,1,0,0,1,174.81,69.07Z"/><path class="cls-1" d="M205.05,69.07h28.89a1,1,0,0,1,1,1v4.31a1,1,0,0,1-1,1h-9.51a1,1,0,0,0-1,1v27.89a1,1,0,0,1-1,1h-5.86a1,1,0,0,1-1-1V76.38a1,1,0,0,0-1-1h-9.52a1,1,0,0,1-1-1V70.07A1,1,0,0,1,205.05,69.07Z"/><path class="cls-1" d="M239.08,69.07h6.56a1,1,0,0,1,1,.76l6,24.4H253l6.67-24.42a1,1,0,0,1,1-.74h5.91a1,1,0,0,1,1,.74l6.65,24.47h.33l6-24.45a1,1,0,0,1,1-.76H288a1,1,0,0,1,1,1.29l-10.17,34.2a1,1,0,0,1-1,.71H271.6a1,1,0,0,1-1-.71l-6.95-23h-.29l-6.93,23a1,1,0,0,1-1,.71h-6.26a1,1,0,0,1-1-.71l-10.17-34.2A1,1,0,0,1,239.08,69.07Z"/><path class="cls-1" d="M294.58,69.07h23.35a1,1,0,0,1,1,1v4.31a1,1,0,0,1-1,1H302.54a1,1,0,0,0-1,1V83a1,1,0,0,0,1,1h14.09a1,1,0,0,1,1,1v4.31a1,1,0,0,1-1,1H302.54a1,1,0,0,0-1,1V98a1,1,0,0,0,1,1H318a1,1,0,0,1,1,1v4.31a1,1,0,0,1-1,1H294.58a1,1,0,0,1-1-1V70.07A1,1,0,0,1,294.58,69.07Z"/><path class="cls-1" d="M326.25,69.07H349.6a1,1,0,0,1,1,1v4.31a1,1,0,0,1-1,1H334.21a1,1,0,0,0-1,1V83a1,1,0,0,0,1,1H348.3a1,1,0,0,1,1,1v4.31a1,1,0,0,1-1,1H334.21a1,1,0,0,0-1,1V98a1,1,0,0,0,1,1h15.46a1,1,0,0,1,1,1v4.31a1,1,0,0,1-1,1H326.25a1,1,0,0,1-1-1V70.07A1,1,0,0,1,326.25,69.07Z"/><path class="cls-1" d="M387.39,105.27H382a1,1,0,0,1-.81-.41L365.15,82.49h-.28v21.78a1,1,0,0,1-1,1h-5.95a1,1,0,0,1-1-1V70.07a1,1,0,0,1,1-1h5.47a1,1,0,0,1,.81.42l15.94,22.35h.33V70.07a1,1,0,0,1,1-1h5.92a1,1,0,0,1,1,1v34.2A1,1,0,0,1,387.39,105.27Z"/><path class="cls-1" d="M92.53,105.52H59.68V72.67a32.85,32.85,0,1,1,32.85,32.85Zm-26.88-6H92.53A26.88,26.88,0,1,0,65.65,72.67Z"/><path class="cls-1" d="M65.65,72.67h-6V22.9A22.9,22.9,0,1,1,92.53,43.51v2.28A26.91,26.91,0,0,0,65.65,72.67ZM82.58,6A16.94,16.94,0,0,0,65.65,22.9V53.8A33,33,0,0,1,82.58,41.36v0C93,38.31,99.5,32.23,99.5,22.9A16.94,16.94,0,0,0,82.58,6Z"/><path class="cls-1" d="M92.53,105.52a32.85,32.85,0,1,1,32.85-32.85A32.89,32.89,0,0,1,92.53,105.52Zm0-59.73a26.88,26.88,0,1,0,26.88,26.88A26.91,26.91,0,0,0,92.53,45.79Z"/></g></g></svg>