<svg xmlns="http://www.w3.org/2000/svg" viewBox="0 0 125.38 127.04"><defs><style>.cls-1{fill:#fff;}</style></defs><title>Asset 6</title><g id="Layer_2" data-name="Layer 2"><g id="Layer_1-2" data-name="Layer 1"><path class="cls-1" d="M32.85,21.52H65.7V54.37A32.85,32.85,0,1,1,32.85,21.52Zm26.88,6H32.85A26.88,26.88,0,1,0,59.73,54.37Z"/><path class="cls-1" d="M59.73,54.37h6v49.77A22.9,22.9,0,1,1,32.85,83.53V81.25A26.91,26.91,0,0,0,59.73,54.37Zm-16.92,66.7a17,17,0,0,0,16.92-16.93V73.24A33,33,0,0,1,42.81,85.68v-.05c-10.42,3.1-16.93,9.18-16.93,18.51A17,17,0,0,0,42.81,121.07Z"/><path class="cls-1" d="M32.85,21.52A32.85,32.85,0,1,1,0,54.37,32.88,32.88,0,0,1,32.85,21.52Zm0,59.73A26.88,26.88,0,1,0,6,54.37,26.91,26.91,0,0,0,32.85,81.25Z"/><path class="cls-1" d="M92.53,105.52H59.68V72.67a32.85,32.85,0,1,1,32.85,32.85Zm-26.88-6H92.53A26.88,26.88,0,1,0,65.65,72.67Z"/><path class="cls-1" d="M65.65,72.67h-6V22.9A22.9,22.9,0,1,1,92.53,43.51v2.28A26.91,26.91,0,0,0,65.65,72.67ZM82.58,6A16.94,16.94,0,0,0,65.65,22.9V53.8A33,33,0,0,1,82.58,41.36v0C93,38.31,99.5,32.23,99.5,22.9A16.94,16.94,0,0,0,82.58,6Z"/><path class="cls-1" d="M92.53,105.52a32.85,32.85,0,1,1,32.85-32.85A32.89,32.89,0,0,1,92.53,105.52Zm0-59.73a26.88,26.88,0,1,0,26.88,26.88A26.91,26.91,0,0,0,92.53,45.79Z"/></g></g></svg>