<svg xmlns="http://www.w3.org/2000/svg" viewBox="0 0 249.74 83.63"><title>bib-logo</title><path d="M1,36.2H15.47c8.13,0,12.46-4.24,12.46-10a8.39,8.39,0,0,0-8-8.79v-.35c3.77-.85,6.54-3.52,6.54-7.78,0-5.43-4-9.28-12-9.28H1A1,1,0,0,0,0,1V35.2A1,1,0,0,0,1,36.2Zm6.65-29a1,1,0,0,1,1-1h4.82c3.39,0,5.32,1.75,5.32,4.36,0,2.87-2.33,4.6-5.46,4.6H8.65a1,1,0,0,1-1-1Zm0,14.14a1,1,0,0,1,1-1h5.42c3.68,0,6,2.12,6,5.11,0,2.72-1.86,4.5-6.14,4.5H8.65a1,1,0,0,1-1-1Z" style="fill:#222"/><path d="M57.34,35.2V30.89a1,1,0,0,0-1-1H41.53a1,1,0,0,1-1-1V22.25a1,1,0,0,1,1-1H55a1,1,0,0,0,1-1V15.94a1,1,0,0,0-1-1H41.53a1,1,0,0,1-1-1V7.31a1,1,0,0,1,1-1H56.27a1,1,0,0,0,1-1V1a1,1,0,0,0-1-1H33.88a1,1,0,0,0-1,1V35.2a1,1,0,0,0,1,1H56.34A1,1,0,0,0,57.34,35.2Z" style="fill:#222"/><path d="M73.05,7.31V35.2a1,1,0,0,0,1,1h5.57a1,1,0,0,0,1-1V7.31a1,1,0,0,1,1-1H90.7a1,1,0,0,0,1-1V1a1,1,0,0,0-1-1H63a1,1,0,0,0-1,1V5.31a1,1,0,0,0,1,1h9.08A1,1,0,0,1,73.05,7.31Z" style="fill:#222"/><path d="M106.3,7.31V35.2a1,1,0,0,0,1,1h5.57a1,1,0,0,0,1-1V7.31a1,1,0,0,1,1-1H124a1,1,0,0,0,1-1V1a1,1,0,0,0-1-1H96.22a1,1,0,0,0-1,1V5.31a1,1,0,0,0,1,1h9.08A1,1,0,0,1,106.3,7.31Z" style="fill:#222"/><path d="M154.31,35.2V30.89a1,1,0,0,0-1-1H138.5a1,1,0,0,1-1-1V22.25a1,1,0,0,1,1-1H152a1,1,0,0,0,1-1V15.94a1,1,0,0,0-1-1H138.5a1,1,0,0,1-1-1V7.31a1,1,0,0,1,1-1h14.74a1,1,0,0,0,1-1V1a1,1,0,0,0-1-1H130.85a1,1,0,0,0-1,1V35.2a1,1,0,0,0,1,1h22.46A1,1,0,0,0,154.31,35.2Z" style="fill:#222"/><path d="M188.06,34.72l-6.38-11.67a1,1,0,0,1,.39-1.35c3.56-1.88,5.51-5.3,5.51-9.87,0-7.2-4.76-11.83-13-11.83H161.32a1,1,0,0,0-1,1V35.2a1,1,0,0,0,1,1H167a1,1,0,0,0,1-1V24.37a1,1,0,0,1,1-1h4a1,1,0,0,1,.88.53l6.3,11.77a1,1,0,0,0,.88.53h6.16A1,1,0,0,0,188.06,34.72Zm-14.89-17.5H169a1,1,0,0,1-1-1v-9a1,1,0,0,1,1-1h4.17c4.41,0,6.55,2,6.55,5.57S177.55,17.22,173.17,17.22Z" style="fill:#222"/><rect x="204.5" width="7.65" height="36.2" rx="1" style="fill:#222"/><path d="M247.74,0h-5.62a1,1,0,0,0-1,1V22.77h-.32L225.47.43a1,1,0,0,0-.82-.43h-5.19a1,1,0,0,0-1,1V35.2a1,1,0,0,0,1,1h5.65a1,1,0,0,0,1-1V13.42h.27l15.45,22.35a1,1,0,0,0,.82.43h5.09a1,1,0,0,0,1-1V1A1,1,0,0,0,247.74,0Z" style="fill:#222"/><path d="M20.76,64.84v-.35c3.91-.85,6.79-3.52,6.79-7.78,0-5.43-4.18-9.28-12.49-9.28H1a1,1,0,0,0-1,1v34.2a1,1,0,0,0,1,1H16.07c8.45,0,13-4.24,13-10A8.52,8.52,0,0,0,20.76,64.84ZM8,54.62a1,1,0,0,1,1-1H14c3.52,0,5.53,1.75,5.53,4.36,0,2.87-2.43,4.6-5.68,4.6H9a1,1,0,0,1-1-1Zm6.49,22.75H9a1,1,0,0,1-1-1V68.76a1,1,0,0,1,1-1h5.67c3.82,0,6.19,2.12,6.19,5.11C20.81,75.59,18.88,77.37,14.44,77.37Z" style="fill:#222"/><path d="M58.59,77.32H43.12a1,1,0,0,1-1-1V69.68a1,1,0,0,1,1-1H57.21a1,1,0,0,0,1-1V63.37a1,1,0,0,0-1-1H43.12a1,1,0,0,1-1-1V54.74a1,1,0,0,1,1-1H58.51a1,1,0,0,0,1-1V48.43a1,1,0,0,0-1-1H35.17a1,1,0,0,0-1,1v34.2a1,1,0,0,0,1,1H58.59a1,1,0,0,0,1-1V78.32A1,1,0,0,0,58.59,77.32Z" style="fill:#222"/><path d="M94.3,47.43H65.4a1,1,0,0,0-1,1v4.31a1,1,0,0,0,1,1h9.52a1,1,0,0,1,1,1V82.63a1,1,0,0,0,1,1h5.86a1,1,0,0,0,1-1V54.74a1,1,0,0,1,1-1H94.3a1,1,0,0,0,1-1V48.43A1,1,0,0,0,94.3,47.43Z" style="fill:#222"/><path d="M148.38,47.43h-6.56a1,1,0,0,0-1,.76l-6,24.45h-.33l-6.65-24.47a1,1,0,0,0-1-.74H121a1,1,0,0,0-1,.74l-6.66,24.41H113l-6-24.39a1,1,0,0,0-1-.76H99.43a1,1,0,0,0-1,1.28l10.17,34.21a1,1,0,0,0,1,.71h6.26a1,1,0,0,0,1-.71l6.93-23H124l7,23a1,1,0,0,0,1,.71h6.26a1,1,0,0,0,1-.71l10.17-34.21A1,1,0,0,0,148.38,47.43Z" style="fill:#222"/><path d="M178.36,77.32H162.89a1,1,0,0,1-1-1V69.68a1,1,0,0,1,1-1H177a1,1,0,0,0,1-1V63.37a1,1,0,0,0-1-1H162.89a1,1,0,0,1-1-1V54.74a1,1,0,0,1,1-1h15.4a1,1,0,0,0,1-1V48.43a1,1,0,0,0-1-1H154.94a1,1,0,0,0-1,1v34.2a1,1,0,0,0,1,1h23.42a1,1,0,0,0,1-1V78.32A1,1,0,0,0,178.36,77.32Z" style="fill:#222"/><path d="M211,77.32H195.56a1,1,0,0,1-1-1V69.68a1,1,0,0,1,1-1h14.09a1,1,0,0,0,1-1V63.37a1,1,0,0,0-1-1H195.56a1,1,0,0,1-1-1V54.74a1,1,0,0,1,1-1H211a1,1,0,0,0,1-1V48.43a1,1,0,0,0-1-1H187.6a1,1,0,0,0-1,1v34.2a1,1,0,0,0,1,1H211a1,1,0,0,0,1-1V78.32A1,1,0,0,0,211,77.32Z" style="fill:#222"/><path d="M248.74,47.43h-5.92a1,1,0,0,0-1,1V70.2h-.33L225.55,47.85a1,1,0,0,0-.81-.42h-5.47a1,1,0,0,0-1,1v34.2a1,1,0,0,0,1,1h6a1,1,0,0,0,1-1V60.85h.27l16.07,22.36a1,1,0,0,0,.81.42h5.36a1,1,0,0,0,1-1V48.43A1,1,0,0,0,248.74,47.43Z" style="fill:#222"/></svg>